<svg xmlns="http://www.w3.org/2000/svg" viewBox="0 0 300 78"><defs><style>.cls-1{fill:#f36e21;}</style></defs><g id="Layer_2" data-name="Layer 2"><g id="Home_Page" data-name="Home Page"><g id="Logo"><rect class="cls-1" x="79" y="46" width="14" height="13"/><rect class="cls-1" x="111" y="46" width="18" height="13"/><rect class="cls-1" x="180" y="46" width="28" height="13"/><rect class="cls-1" x="226" y="46" width="9" height="13"/><rect class="cls-1" width="14" height="59"/><rect class="cls-1" x="27" y="18" width="14" height="41"/><rect class="cls-1" x="13" y="18" width="14" height="13"/><rect class="cls-1" x="46" y="18" width="14" height="41"/><rect class="cls-1" x="65" y="18" width="14" height="60"/><rect class="cls-1" x="92" y="18" width="14" height="41"/><rect class="cls-1" x="78" y="18" width="14" height="13"/><rect class="cls-1" x="129" y="18" width="14" height="41"/><rect class="cls-1" x="143" y="18" width="19" height="13"/><rect class="cls-1" x="166" y="18" width="14" height="41"/><rect class="cls-1" x="180" y="18" width="28" height="13"/><rect class="cls-1" x="212" y="18" width="14" height="41"/><rect class="cls-1" x="225" y="18" width="24" height="13"/><rect class="cls-1" x="239" y="18" width="14" height="41"/><rect class="cls-1" x="259" y="18" width="14" height="41"/><rect class="cls-1" x="272" y="18" width="24" height="13"/><rect class="cls-1" x="286" y="18" width="14" height="41"/></g></g></g></svg>